<svg width="24" height="24" viewBox="0 0 24 24" fill="none" xmlns="http://www.w3.org/2000/svg">
<path fill-rule="evenodd" clip-rule="evenodd" d="M12 0C18.627 0 24 5.372 24 12C24 18.627 18.627 24 12 24C5.373 24 0 18.627 0 12C0 5.372 5.373 0 12 0Z" fill="#FF6171"/>
<path fill-rule="evenodd" clip-rule="evenodd" d="M10.5099 11.9999L13.7099 8.79987C14.1179 8.39187 14.1179 7.72987 13.7099 7.32187C13.3019 6.91387 12.6409 6.91387 12.2329 7.32187L8.32186 11.2329C8.10986 11.4439 8.01386 11.7229 8.02086 11.9999C8.01386 12.2769 8.10986 12.5559 8.32186 12.7669L12.2329 16.6779C12.6409 17.0859 13.3019 17.0859 13.7099 16.6779C14.1179 16.2699 14.1179 15.6079 13.7099 15.1999L10.5099 11.9999Z" fill="white"/>
</svg>
