<svg width="24" height="24" viewBox="0 0 24 24" fill="none" xmlns="http://www.w3.org/2000/svg">
<path fill-rule="evenodd" clip-rule="evenodd" d="M12 0.000244141C18.627 0.000244141 24 5.37224 24 12.0002C24 18.6272 18.627 24.0002 12 24.0002C5.373 24.0002 0 18.6272 0 12.0002C0 5.37224 5.373 0.000244141 12 0.000244141Z" fill="#A5B4BB"/>
<path fill-rule="evenodd" clip-rule="evenodd" d="M17.5256 11.9991L14.3264 15.1983C13.9185 15.6062 13.9185 16.268 14.3264 16.6759C14.7343 17.0838 15.3951 17.0838 15.803 16.6759L19.713 12.7659C19.925 12.555 20.0209 12.276 20.0139 11.9991C20.0209 11.7222 19.925 11.4433 19.713 11.2323L15.803 7.32235C15.3951 6.91446 14.7343 6.91446 14.3264 7.32235C13.9185 7.73025 13.9185 8.39207 14.3264 8.79996L17.5256 11.9991Z" fill="white"/>
<path fill-rule="evenodd" clip-rule="evenodd" d="M11 13C10.4477 13 10 12.5523 10 12C10 11.4477 10.4477 11 11 11H17C17.5523 11 18 11.4477 18 12C18 12.5523 17.5523 13 17 13L11 13Z" fill="white"/>
<path fill-rule="evenodd" clip-rule="evenodd" d="M11 5C11.5523 5 12 5.44772 12 6C12 6.55228 11.5523 7 11 7L7 7C6.44772 7 6 6.55228 6 6C6 5.44772 6.44772 5 7 5L11 5Z" fill="white"/>
<path fill-rule="evenodd" clip-rule="evenodd" d="M11 17C11.5523 17 12 17.4477 12 18C12 18.5523 11.5523 19 11 19H7C6.44772 19 6 18.5523 6 18C6 17.4477 6.44772 17 7 17L11 17Z" fill="white"/>
<path fill-rule="evenodd" clip-rule="evenodd" d="M7 5C7.55228 5 8 5.44772 8 6L8 18C8 18.5523 7.55228 19 7 19C6.44772 19 6 18.5523 6 18L6 6C6 5.44772 6.44772 5 7 5Z" fill="white"/>
</svg>
