<svg width="237" height="41" viewBox="0 0 237 41" fill="none" xmlns="http://www.w3.org/2000/svg">
<path fill-rule="evenodd" clip-rule="evenodd" d="M22 9.66992H222.5L216.852 24.2812L222.5 39.6699H22V9.66992Z" fill="#00C3EE"/>
<path fill-rule="evenodd" clip-rule="evenodd" d="M222 39.6699C230.284 39.6699 237 32.9542 237 24.6699C237 16.3857 230.284 9.66992 222 9.66992C213.716 9.66992 207 16.3857 207 24.6699C207 32.9542 213.716 39.6699 222 39.6699Z" fill="#00C3EE"/>
<path fill-rule="evenodd" clip-rule="evenodd" d="M16.803 39.0501C8.51191 39.0501 1.79102 32.3052 1.79102 23.9845C1.79102 15.6646 8.51191 8.91895 16.803 8.91895C25.0941 8.91895 31.815 15.6646 31.815 23.9845C31.815 32.3052 25.0941 39.0501 16.803 39.0501Z" fill="white"/>
<path fill-rule="evenodd" clip-rule="evenodd" d="M16.803 39.0501C8.51191 39.0501 1.79102 32.3052 1.79102 23.9845C1.79102 15.6646 8.51191 8.91895 16.803 8.91895C25.0941 8.91895 31.815 15.6646 31.815 23.9845C31.815 32.3052 25.0941 39.0501 16.803 39.0501ZM16.8035 7.74927C7.88337 7.74927 0.625977 15.0326 0.625977 23.9845C0.625977 32.9364 7.88337 40.2197 16.8035 40.2197C25.7235 40.2197 32.9809 32.9364 32.9809 23.9845C32.9809 15.0326 25.7235 7.74927 16.8035 7.74927Z" fill="#41C1F1"/>
<mask id="mask0" mask-type="alpha" maskUnits="userSpaceOnUse" x="21" y="9" width="14" height="20">
<path fill-rule="evenodd" clip-rule="evenodd" d="M31.2157 28.2123C31.6057 26.871 31.8148 25.4524 31.8148 23.9846C31.8148 22.2873 33.028 20.0496 34.464 17.5911V9.33765H21.665V28.2123H31.2157Z" fill="white"/>
</mask>
<g mask="url(#mask0)">
<path fill-rule="evenodd" clip-rule="evenodd" d="M25.2502 28.2123L21.665 18.3832L31.8439 9.33765L34.464 10.4911L25.2502 28.2123Z" fill="#6E568D"/>
</g>
<path fill-rule="evenodd" clip-rule="evenodd" d="M12.0265 27.9156L8.97015 26.4219L10.5218 23.8234L7.37529 22.1029L9.60763 18.8144L5.56152 17.0375L8.73582 13.6809L12.0265 27.9156Z" fill="#101113"/>
<mask id="mask1" mask-type="alpha" maskUnits="userSpaceOnUse" x="2" y="10" width="24" height="30">
<path fill-rule="evenodd" clip-rule="evenodd" d="M5.32569 10.0947C5.87157 11.8955 6.03171 13.4316 5.30855 14.2947C4.14275 15.6857 3.22324 17.2913 2.61719 19.044L2.61719 28.9254C4.65514 34.8193 10.2372 39.0502 16.8032 39.0502C19.9573 39.0502 22.8842 38.0741 25.3002 36.4065V10.0947H5.32569Z" fill="white"/>
</mask>
<g mask="url(#mask1)">
<path fill-rule="evenodd" clip-rule="evenodd" d="M25.0399 20.1747C25.265 22.0584 25.3058 34.9695 25.2997 39.3093C25.295 43.3443 23.8466 47.6609 17.5697 48.6998C12.4699 49.5446 9.03584 50.1604 6.49055 51.0067C4.41238 51.6975 3.41107 52.2436 3.01332 52.485C2.61557 52.7264 2.44984 52.3256 2.8368 51.5985C3.24226 50.8342 8.01448 45.1475 11.4408 43.7319C14.8672 42.317 14.2166 40.8951 13.8512 38.4522C12.8468 31.7282 8.4315 13.634 8.43921 13.6696C8.43921 13.6696 22.9008 2.27392 25.0399 20.1747Z" fill="#FE5767"/>
</g>
<mask id="mask2" mask-type="alpha" maskUnits="userSpaceOnUse" x="8" y="12" width="18" height="28">
<path fill-rule="evenodd" clip-rule="evenodd" d="M22.2923 12.3743C23.589 13.925 24.5887 16.3978 25.0401 20.1749C25.2267 21.7345 25.2868 30.8527 25.2983 36.4078C22.8826 38.0741 19.9565 39.0504 16.8038 39.0504C15.8109 39.0504 14.8405 38.9537 13.9016 38.7688C13.8846 38.6652 13.8684 38.56 13.8522 38.4532C12.8486 31.7385 8.44408 13.6853 8.43945 13.6691C8.43977 13.6688 9.19159 13.0765 10.3776 12.3743L22.2923 12.3743V12.3743Z" fill="white"/>
</mask>
<g mask="url(#mask2)">
<path fill-rule="evenodd" clip-rule="evenodd" d="M15.9691 21.5507C15.9691 21.5507 18.5468 35.3158 18.7149 38.5935C18.8659 41.5517 17.7667 45.432 14.325 46.2102C10.8824 46.9892 8.07427 48.6115 6.60429 49.4632C4.06594 50.9353 2.00781 53.7218 2.00781 53.7218L21.8683 49.4044L28.5861 44.2585L25.5737 22.0264C25.5737 22.0264 26.1572 11.6016 19.367 12.4201C14.446 13.0134 15.6454 18.3148 15.9691 21.5507Z" fill="#FEC401"/>
</g>
<path fill-rule="evenodd" clip-rule="evenodd" d="M23.8729 20.3194C23.8729 20.3194 25.3306 19.8127 26.8275 19.3315C28.5565 18.7753 29.924 18.0814 30.0026 17.9715C30.0034 17.9708 29.5416 14.9143 27.7995 10.8917C26.0598 6.87369 22.1216 8.15243 16.1407 10.5196C13.8536 11.4247 8.38379 13.5505 8.38379 13.5505C8.38379 13.5505 10.2692 16.1103 12.7336 18.6314C16.6417 22.6277 23.8729 20.3201 23.8729 20.3194Z" fill="#FE5767"/>
<path fill-rule="evenodd" clip-rule="evenodd" d="M24.3892 6.38804C25.382 6.30527 26.226 7.31557 26.2738 8.64459C26.3224 9.97361 25.5562 11.1177 24.5626 11.2005C23.5698 11.2833 22.7257 10.273 22.6779 8.94397C22.6301 7.61495 23.3963 6.47082 24.3892 6.38804Z" fill="#FE5767"/>
<path fill-rule="evenodd" clip-rule="evenodd" d="M24.7438 7.50002C25.1169 7.5472 25.3812 8.06705 25.3342 8.66271C25.2872 9.2576 24.9465 9.70241 24.5734 9.656C24.2003 9.60881 23.9359 9.08818 23.983 8.4933C24.03 7.89764 24.3707 7.45283 24.7438 7.50002Z" fill="#101113"/>
<path fill-rule="evenodd" clip-rule="evenodd" d="M28.1172 7.23709C28.9659 7.4738 29.3004 8.6071 28.8641 9.76748C28.4286 10.9271 27.3872 11.6759 26.5393 11.4392C25.6906 11.2017 25.356 10.0692 25.7916 8.9088C26.2279 7.74842 27.2685 7.00037 28.1172 7.23709Z" fill="#FE5767"/>
<path fill-rule="evenodd" clip-rule="evenodd" d="M27.858 8.19306C28.1749 8.31993 28.2597 8.8011 28.0477 9.26757C27.8357 9.73404 27.4071 10.0094 27.0895 9.88257C26.7727 9.7557 26.6879 9.27376 26.8999 8.80729C27.1119 8.34081 27.5412 8.06619 27.858 8.19306Z" fill="#101113"/>
<path fill-rule="evenodd" clip-rule="evenodd" d="M7.09278 3.27193C7.74876 2.95322 8.32997 2.94857 8.60284 3.34388C8.87572 3.73995 8.56739 4.3565 8.20741 4.63576C7.8482 4.91425 7.19453 6.20614 7.02032 6.52331C6.84689 6.84125 6.30807 7.01531 5.98047 6.8722C5.65364 6.72986 5.52722 6.23863 5.55959 5.85571C5.63822 4.91425 6.11459 3.74691 7.09278 3.27193Z" fill="#101113"/>
<path fill-rule="evenodd" clip-rule="evenodd" d="M14.9479 0.673075C14.2472 0.888905 13.8178 1.28498 13.8872 1.76538C13.9573 2.24577 14.6064 2.49023 15.0612 2.44923C15.516 2.40823 16.8796 2.91415 17.2249 3.02941C17.5695 3.14468 18.0844 2.90332 18.2278 2.573C18.3704 2.24268 18.1276 1.79168 17.8416 1.53021C17.1401 0.887358 15.9916 0.352037 14.9479 0.673075Z" fill="#101113"/>
<path fill-rule="evenodd" clip-rule="evenodd" d="M8.85374 6.3234C11.1508 5.55214 13.6345 6.79297 14.4014 9.09516C15.1684 11.3966 13.9281 13.8875 11.6318 14.658C9.33474 15.4293 6.85112 14.1884 6.08337 11.887C5.31639 9.58484 6.55666 7.09467 8.85374 6.3234Z" fill="#2EBCB4"/>
<path fill-rule="evenodd" clip-rule="evenodd" d="M14.9663 3.85579C17.2634 3.08453 19.747 4.32613 20.5148 6.62832C21.2818 8.93051 20.0415 11.4215 17.7452 12.1927C15.4481 12.964 12.9637 11.7224 12.1967 9.42019C11.4298 7.118 12.6693 4.62706 14.9663 3.85579Z" fill="#2EBCB4"/>
<path fill-rule="evenodd" clip-rule="evenodd" d="M9.34778 7.81143C10.8239 7.31556 12.4211 8.1139 12.9144 9.59377C13.407 11.0736 12.6099 12.675 11.1338 13.1708C9.65765 13.6667 8.06048 12.8684 7.56792 11.3885C7.07459 9.90862 7.87163 8.3073 9.34778 7.81143Z" fill="white"/>
<path fill-rule="evenodd" clip-rule="evenodd" d="M15.4634 5.34512C16.9395 4.84925 18.5367 5.64759 19.0301 7.12746C19.5226 8.60733 18.7256 10.2086 17.2494 10.7045C15.7733 11.2004 14.1761 10.402 13.6828 8.92218C13.1902 7.44231 13.9873 5.84099 15.4634 5.34512Z" fill="white"/>
<path fill-rule="evenodd" clip-rule="evenodd" d="M25.0202 19.9276C23.5987 20.3136 21.1907 20.7066 18.8905 20.5789C17.079 20.4791 14.7226 20.0196 13.7814 18.3997C13.7012 18.2613 13.5247 18.2149 13.3875 18.2953C13.2495 18.3758 13.2033 18.5529 13.2835 18.6906C15.1797 21.9575 21.8906 21.3548 25.071 20.5155C25.0595 20.3198 25.0402 20.1225 25.0202 19.9276Z" fill="white"/>
<path fill-rule="evenodd" clip-rule="evenodd" d="M8.8201 11.326C8.63742 11.326 8.47015 11.2054 8.4185 11.0205C8.31675 10.6584 8.40385 10.26 8.65823 9.92662C8.88871 9.62492 9.23713 9.39594 9.63873 9.28222C10.0403 9.16928 10.4558 9.18166 10.8096 9.31858C11.1997 9.46943 11.4818 9.76339 11.5835 10.1254C11.646 10.3482 11.5165 10.5795 11.2945 10.6422C11.0725 10.7056 10.842 10.5757 10.7788 10.3529C10.7387 10.209 10.593 10.1332 10.509 10.1007C10.3255 10.0303 10.0912 10.0256 9.86535 10.0898C9.6395 10.1533 9.4414 10.2801 9.32192 10.4372C9.26719 10.5084 9.1824 10.6491 9.22248 10.793C9.28492 11.0158 9.15542 11.2471 8.93342 11.3106C8.89565 11.3206 8.85788 11.326 8.8201 11.326Z" fill="#101113"/>
<path fill-rule="evenodd" clip-rule="evenodd" d="M15.473 8.55692C15.2903 8.55692 15.123 8.43624 15.0714 8.25135C14.8679 7.52805 15.4036 6.76452 16.2916 6.51311C17.1789 6.26246 18.0329 6.63224 18.2364 7.35631C18.2989 7.57911 18.1694 7.81041 17.9474 7.87307C17.7254 7.9365 17.4949 7.80654 17.4325 7.58375C17.3677 7.35477 16.9769 7.19077 16.5183 7.32073C16.0596 7.44992 15.8114 7.79494 15.8754 8.02392C15.9378 8.24671 15.8083 8.47801 15.5863 8.54145C15.5485 8.5515 15.5108 8.55692 15.473 8.55692Z" fill="#101113"/>
<mask id="mask3" mask-type="alpha" maskUnits="userSpaceOnUse" x="19" y="35" width="9" height="4">
<path fill-rule="evenodd" clip-rule="evenodd" d="M19.0801 38.8781C22.1258 38.4129 24.8707 37.0293 27.0255 35.0176H19.0801V38.8781H19.0801Z" fill="white"/>
</mask>
<g mask="url(#mask3)">
<path fill-rule="evenodd" clip-rule="evenodd" d="M24.9723 35.265C25.7501 35.6688 26.6057 39.8585 26.6057 39.8585L27.3742 39.2157L28.6924 40.3621L27.6039 43.8255C27.6039 43.8255 25.767 43.523 24.0149 41.5913C23.9209 41.4877 22.9689 44.7429 21.519 44.5016C15.9212 43.5694 21.2022 33.3086 24.9723 35.265Z" fill="#6E568D"/>
</g>
<mask id="mask4" mask-type="alpha" maskUnits="userSpaceOnUse" x="19" y="35" width="8" height="4">
<path fill-rule="evenodd" clip-rule="evenodd" d="M19.2529 38.8507C22.0795 38.3852 24.6402 37.1274 26.7013 35.312H19.2529V38.8507Z" fill="white"/>
</mask>
<g mask="url(#mask4)">
<path fill-rule="evenodd" clip-rule="evenodd" d="M20.2272 43.295C20.1347 43.326 20.0884 43.4389 20.1247 43.5472C20.1601 43.6563 20.2649 43.7189 20.3574 43.688C20.4499 43.657 20.4962 43.5441 20.46 43.4358C20.4237 43.3267 20.3197 43.2641 20.2272 43.295ZM21.1558 43.9951C21.2328 44.1243 21.37 44.204 21.4633 44.173C21.5558 44.1421 21.5682 44.0121 21.4911 43.8829C21.414 43.7545 21.2768 43.6748 21.1843 43.7058C21.0918 43.7367 21.0787 43.8659 21.1558 43.9951ZM21.4157 39.0125C21.3232 39.0434 21.2769 39.1564 21.3131 39.2647C21.3494 39.3737 21.4534 39.4364 21.5459 39.4055C21.6384 39.3745 21.6847 39.2616 21.6484 39.1533C21.613 39.045 21.5082 38.9815 21.4157 39.0125ZM28.1868 40.1667C28.0627 40.128 27.8608 40.4227 27.8222 40.5473C27.7837 40.6718 27.8523 40.8049 27.9764 40.8436C28.0997 40.8822 28.3187 40.7159 28.3618 40.5929C28.4335 40.3864 28.3102 40.2054 28.1868 40.1667ZM27.4406 43.3895C27.3789 43.4096 27.3458 43.4761 27.3666 43.5388C27.3866 43.6006 27.4537 43.6339 27.5146 43.6138C27.5762 43.5929 27.6086 43.5264 27.5886 43.4645C27.5678 43.4026 27.5015 43.3686 27.4406 43.3895ZM20.9537 43.3863C21.0154 43.3654 21.0485 43.2989 21.0277 43.237C21.0077 43.1751 20.9406 43.1411 20.8797 43.1612C20.8181 43.1821 20.7857 43.2486 20.8057 43.3105C20.8265 43.3724 20.8928 43.4064 20.9537 43.3863ZM21.5423 43.2478C21.681 43.2014 21.7566 43.0513 21.7103 42.9121C21.6641 42.7728 21.5145 42.6978 21.375 42.7442C21.2363 42.7906 21.1607 42.9407 21.207 43.0799C21.2532 43.2192 21.4028 43.2942 21.5423 43.2478ZM21.221 38.3086C21.2819 38.2885 21.3151 38.2219 21.2943 38.1593C21.2742 38.0974 21.2079 38.0641 21.1463 38.0842C21.0854 38.1051 21.0522 38.1716 21.0723 38.2335C21.0931 38.2954 21.1594 38.3295 21.221 38.3086ZM20.6661 38.4942C20.8195 38.4424 20.9019 38.276 20.8511 38.1213C20.8002 37.9674 20.6337 37.883 20.4803 37.9341C20.3269 37.9859 20.2444 38.1523 20.2953 38.307C20.3462 38.4617 20.5127 38.5452 20.6661 38.4942ZM25.3339 39.4341C25.3956 39.4139 25.4287 39.3466 25.4079 39.2848C25.3871 39.2229 25.3208 39.1896 25.2599 39.2097C25.1982 39.2298 25.1651 39.2971 25.1859 39.359C25.2067 39.4209 25.273 39.4549 25.3339 39.4341ZM26.7955 41.7641C26.6868 41.8352 26.7531 42.1315 26.8117 42.2228C26.871 42.3141 27.0067 42.3311 27.1154 42.2599C27.224 42.1888 27.2564 41.9451 27.2017 41.8515C27.1092 41.6945 26.9042 41.6929 26.7955 41.7641ZM27.2193 40.7956C27.1106 40.8668 27.1769 41.1638 27.2355 41.2551C27.2948 41.3464 27.4305 41.3627 27.5392 41.2915C27.6479 41.2211 27.6802 40.9766 27.6255 40.883C27.533 40.7268 27.328 40.7252 27.2193 40.7956ZM19.9713 41.0934C19.8641 41.1298 19.8056 41.2466 19.8418 41.3549C19.878 41.4639 19.9944 41.5227 20.1016 41.4864C20.2095 41.4508 20.2673 41.3332 20.2318 41.2249C20.1956 41.1166 20.0792 41.0578 19.9713 41.0934ZM19.5905 41.0717C19.6676 41.0462 19.71 40.9627 19.6838 40.8853C19.6583 40.8072 19.5751 40.7654 19.498 40.7909C19.4201 40.8172 19.3785 40.9008 19.4039 40.9781C19.4302 41.0555 19.5134 41.0973 19.5905 41.0717ZM27.4747 39.9671C27.3668 40.0026 27.309 40.1195 27.3444 40.2285C27.3806 40.3368 27.497 40.3956 27.605 40.36C27.7121 40.3237 27.7707 40.2069 27.7345 40.0986C27.6982 39.9895 27.5818 39.9307 27.4747 39.9671ZM25.0473 38.2141C24.9548 38.0578 24.7498 38.0563 24.6411 38.1267C24.5324 38.1978 24.5987 38.4949 24.6581 38.5862C24.7167 38.6775 24.8531 38.6937 24.9618 38.6225C25.0705 38.5521 25.1028 38.3077 25.0473 38.2141ZM22.4139 40.3825C22.3762 40.1906 22.2174 40.0599 22.0578 40.0908C21.899 40.1226 21.8004 40.3036 21.8381 40.4954C21.8751 40.6873 22.0347 40.818 22.1935 40.7871C22.3531 40.7561 22.4517 40.5751 22.4139 40.3825ZM21.8119 42.1695C21.6631 42.1478 21.5274 42.2337 21.5089 42.3629C21.4897 42.4913 21.7217 42.6878 21.8697 42.7141C22.1171 42.7582 22.2967 42.612 22.3152 42.4828C22.3345 42.3544 21.9599 42.1919 21.8119 42.1695ZM20.7816 39.6367C20.6328 39.6143 20.4972 39.7009 20.4787 39.8301C20.4594 39.9585 20.6914 40.155 20.8394 40.1813C21.0869 40.2254 21.2665 40.0784 21.285 39.95C21.3042 39.8208 20.9296 39.6591 20.7816 39.6367ZM20.5278 39.2167C20.6674 39.1703 20.7421 39.0202 20.6966 38.8809C20.6504 38.7417 20.5001 38.6667 20.3613 38.7131C20.2226 38.7595 20.147 38.9096 20.1933 39.0488C20.2388 39.1881 20.3891 39.2631 20.5278 39.2167ZM22.3978 43.6772C22.3601 43.4846 22.2005 43.3546 22.0417 43.3855C21.8829 43.4165 21.7842 43.5975 21.8212 43.7893C21.859 43.982 22.0186 44.1127 22.1774 44.0818C22.3362 44.05 22.4348 43.869 22.3978 43.6772ZM22.8338 42.6313C22.7413 42.5392 22.5925 42.54 22.5016 42.6329C22.4106 42.7257 22.4569 42.9972 22.5463 43.0924C22.695 43.2509 22.9116 43.2246 23.0034 43.1318C23.0943 43.039 22.9263 42.7234 22.8338 42.6313ZM23.694 39.3366C23.657 39.1447 23.4974 39.014 23.3386 39.0449C23.1791 39.0759 23.0812 39.2569 23.1182 39.4495C23.1559 39.6414 23.3147 39.7721 23.4743 39.7412C23.6331 39.7102 23.7317 39.5292 23.694 39.3366ZM19.9129 39.6437C19.8204 39.5524 19.6716 39.5524 19.5807 39.6453C19.4897 39.7381 19.536 40.0096 19.6254 40.1048C19.7741 40.2634 19.9907 40.237 20.0817 40.1442C20.1727 40.0522 20.0046 39.7358 19.9129 39.6437ZM24.1307 38.2907C24.0382 38.1987 23.8894 38.1994 23.7984 38.2923C23.7075 38.3851 23.7537 38.6566 23.8431 38.7518C23.9919 38.9104 24.2085 38.8841 24.2995 38.7912C24.3912 38.6984 24.2224 38.3828 24.1307 38.2907ZM25.7089 37.7531C25.5863 37.7941 25.52 37.9279 25.5609 38.0517C25.6017 38.1763 25.7351 38.2436 25.8577 38.2018C25.981 38.1608 26.0473 38.027 26.0064 37.9032C25.9656 37.7794 25.8322 37.7121 25.7089 37.7531ZM25.9308 39.1742C26.0233 39.1432 26.0357 39.0132 25.9586 38.8841C25.8815 38.7549 25.7443 38.6752 25.6526 38.7061C25.5601 38.7371 25.5477 38.8663 25.6248 38.9955C25.7011 39.1246 25.8383 39.2043 25.9308 39.1742ZM27.3862 42.3737C27.2498 42.4193 27.2467 42.7806 27.2876 42.9044C27.3284 43.0289 27.4726 43.0923 27.6098 43.0467C27.7462 43.0011 27.8441 42.7318 27.8071 42.6065C27.7462 42.3969 27.5234 42.328 27.3862 42.3737ZM23.8084 40.0267C23.7129 40.0584 23.7159 40.3284 23.7468 40.4212C23.7776 40.514 23.8801 40.5635 23.9757 40.5318C24.0713 40.4993 24.1361 40.3005 24.1083 40.2069C24.0621 40.0499 23.904 39.995 23.8084 40.0267ZM19.533 41.9691C19.6239 41.9351 19.6571 41.7966 19.607 41.6582C19.5569 41.5205 19.442 41.4361 19.351 41.4694C19.2593 41.5027 19.2262 41.6419 19.2763 41.7796C19.3264 41.9181 19.4412 42.0024 19.533 41.9691ZM24.5888 41.6929C24.6806 41.6596 24.7137 41.5204 24.6636 41.3827C24.6135 41.2442 24.4987 41.1599 24.4069 41.1932C24.316 41.2272 24.2828 41.3657 24.3329 41.5041C24.383 41.6418 24.4979 41.7262 24.5888 41.6929ZM24.7777 40.6115C24.8694 40.5782 24.9025 40.439 24.8524 40.3013C24.8016 40.1628 24.6875 40.0785 24.5958 40.1117C24.5048 40.145 24.4709 40.2842 24.5218 40.4219C24.5719 40.5604 24.6867 40.6447 24.7777 40.6115ZM26.8133 41.5568C26.952 41.5104 27.0268 41.3603 26.9805 41.2211C26.9343 41.0826 26.7848 41.0068 26.6468 41.0532C26.508 41.0996 26.4333 41.2497 26.4795 41.3889C26.525 41.5274 26.6745 41.6025 26.8133 41.5568ZM24.954 41.9699C24.8615 42.0008 24.8161 42.1138 24.8523 42.2221C24.8878 42.3304 24.9918 42.3938 25.0835 42.3629C25.176 42.3319 25.2215 42.219 25.1861 42.1107C25.1498 42.0024 25.0458 41.9389 24.954 41.9699ZM22.0618 38.5909C21.913 38.5685 21.7774 38.6551 21.7589 38.7836C21.7404 38.9128 21.9724 39.1092 22.1196 39.1355C22.367 39.1796 22.5466 39.0327 22.5659 38.9042C22.5844 38.7751 22.2106 38.6126 22.0618 38.5909ZM19.5425 42.3737C19.4192 42.4147 19.4277 42.7728 19.4685 42.8966C19.5094 43.0204 19.6427 43.0877 19.7653 43.0467C19.8886 43.0057 19.9696 42.7427 19.9326 42.6174C19.8709 42.4077 19.6659 42.3327 19.5425 42.3737ZM21.9169 41.1831C21.7936 41.2241 21.8013 41.5823 21.8429 41.7061C21.8837 41.8298 22.0163 41.8971 22.1397 41.8561C22.263 41.8151 22.3432 41.5514 22.3069 41.4268C22.2453 41.2172 22.0395 41.1421 21.9169 41.1831ZM22.8347 41.6891C22.7376 41.6883 22.6582 41.8074 22.6582 41.9537C22.6574 42.1006 22.7361 42.2205 22.8332 42.2205C22.9303 42.2213 23.0097 42.1022 23.0105 41.956C23.0105 41.809 22.9319 41.6891 22.8347 41.6891ZM25.2999 41.1901C25.1765 41.2311 25.1843 41.5893 25.2251 41.713C25.2667 41.8368 25.3993 41.9041 25.5227 41.8631C25.6452 41.8221 25.7262 41.5591 25.6892 41.4338C25.6275 41.2241 25.4224 41.1491 25.2999 41.1901ZM23.6798 40.9998C23.6028 41.0261 23.5611 41.1097 23.5866 41.187C23.6128 41.2644 23.696 41.3061 23.7731 41.2806C23.8502 41.2551 23.8918 41.1715 23.8664 41.0934C23.8409 41.016 23.7577 40.9743 23.6798 40.9998ZM22.6288 40.9247C22.551 40.951 22.5094 41.0346 22.5348 41.1119C22.561 41.1893 22.6443 41.2311 22.7213 41.2055C22.7984 41.18 22.8401 41.0965 22.8146 41.0191C22.7892 40.941 22.7059 40.8992 22.6288 40.9247ZM23.0679 40.1698C22.97 40.169 22.8914 40.2882 22.8906 40.4344C22.8906 40.5814 22.9692 40.7013 23.0664 40.7013C23.1635 40.702 23.2429 40.5837 23.2429 40.4367C23.2437 40.2897 23.165 40.1706 23.0679 40.1698ZM26.2248 42.5702C26.1477 42.5958 26.1061 42.6801 26.1315 42.7574C26.1569 42.8348 26.2409 42.8766 26.318 42.8511C26.3951 42.8255 26.4367 42.7412 26.4113 42.6638C26.3859 42.5865 26.3018 42.5447 26.2248 42.5702ZM25.6242 42.4518C25.5471 42.4774 25.5055 42.5609 25.5309 42.639C25.5571 42.7164 25.6404 42.7582 25.7174 42.7326C25.7945 42.7063 25.8362 42.6228 25.8107 42.5454C25.7853 42.4681 25.7013 42.4263 25.6242 42.4518ZM26.2183 41.696C26.1212 41.696 26.0418 41.8144 26.041 41.9614C26.041 42.1084 26.1196 42.2275 26.2168 42.2283C26.3139 42.2283 26.3933 42.1099 26.3933 41.9629C26.3941 41.816 26.3154 41.6968 26.2183 41.696ZM27.8182 41.9072C27.7881 41.8144 27.6887 41.7641 27.597 41.795C27.5052 41.8252 27.4559 41.925 27.4867 42.0178C27.5168 42.1099 27.6162 42.1601 27.708 42.13C27.7997 42.099 27.849 41.9992 27.8182 41.9072ZM26.0433 39.6963C26.0634 39.7582 26.1297 39.7922 26.1913 39.7713C26.2522 39.7512 26.2854 39.6847 26.2653 39.622C26.2445 39.5602 26.1782 39.5269 26.1166 39.547C26.0557 39.5679 26.0225 39.6344 26.0433 39.6963ZM20.7613 41.2265C20.6542 41.262 20.5956 41.3789 20.6318 41.4872C20.6681 41.5962 20.7844 41.655 20.8916 41.6187C20.9995 41.5831 21.0573 41.4663 21.0219 41.3572C20.9856 41.2489 20.8692 41.1901 20.7613 41.2265ZM20.5675 40.5434C20.5266 40.4189 20.3932 40.3516 20.2699 40.3934C20.1466 40.4344 20.0795 40.5682 20.1204 40.692C20.1612 40.8165 20.2946 40.8831 20.4187 40.8421C20.542 40.8011 20.6091 40.6672 20.5675 40.5434ZM21.2605 40.4397C21.1017 40.4707 21.003 40.6517 21.04 40.8443C21.0778 41.0361 21.2373 41.1669 21.3961 41.1359C21.5549 41.105 21.6536 40.924 21.6166 40.7314C21.5788 40.5395 21.4192 40.4088 21.2605 40.4397ZM25.8844 40.8087C25.7765 40.8451 25.7187 40.9619 25.7549 41.0702C25.7904 41.1785 25.9068 41.2373 26.0147 41.2017C26.1219 41.1661 26.1804 41.0485 26.1442 40.9402C26.1088 40.8319 25.9924 40.7731 25.8844 40.8087ZM25.6899 40.1257C25.6491 40.0019 25.5157 39.9346 25.3916 39.9756C25.2683 40.0174 25.2012 40.1512 25.2428 40.275C25.2837 40.3988 25.417 40.4661 25.5404 40.4251C25.6645 40.3833 25.7308 40.2495 25.6899 40.1257ZM26.3838 40.0228C26.2242 40.0538 26.1256 40.2348 26.1633 40.4266C26.2011 40.6192 26.3599 40.75 26.5195 40.7183C26.6782 40.6873 26.7769 40.5063 26.7391 40.3145C26.7021 40.1218 26.5426 39.9911 26.3838 40.0228ZM24.7789 39.619C24.9323 39.5679 25.0155 39.4016 24.9646 39.2469C24.913 39.0922 24.7473 39.0086 24.5939 39.0597C24.4405 39.1107 24.3572 39.2778 24.4089 39.4325C24.4597 39.5865 24.6255 39.6708 24.7789 39.619ZM25.3007 37.4351C25.4101 37.3639 25.3438 37.0669 25.2845 36.9756C25.2259 36.8843 25.0895 36.8681 24.98 36.9392C24.8713 37.0104 24.8382 37.2549 24.8937 37.3485C24.9862 37.5047 25.192 37.5063 25.3007 37.4351ZM23.0583 38.3881C23.0274 38.2953 22.9272 38.245 22.8347 38.276C22.7422 38.3061 22.6921 38.4067 22.723 38.5003C22.7538 38.5931 22.8532 38.6434 22.9465 38.6125C23.039 38.5815 23.0891 38.481 23.0583 38.3881ZM27.1121 43.3128C27.203 43.22 27.1568 42.9485 27.0681 42.8533C26.9178 42.6947 26.7012 42.721 26.6095 42.8139C26.5177 42.9067 26.6866 43.2231 26.7791 43.3144C26.8716 43.4064 27.0203 43.4057 27.1121 43.3128ZM24.2305 37.8103C24.3546 37.7686 24.4209 37.6347 24.38 37.511C24.3392 37.3872 24.2058 37.3199 24.0825 37.3609C23.9584 37.4019 23.8921 37.5357 23.9329 37.6603C23.9738 37.784 24.1072 37.8513 24.2305 37.8103ZM22.3429 39.7126C22.42 39.8418 22.558 39.9215 22.6505 39.8905C22.743 39.8596 22.7553 39.7304 22.6783 39.6012C22.6019 39.472 22.464 39.3924 22.3715 39.4233C22.279 39.4542 22.2666 39.5834 22.3429 39.7126ZM23.981 36.6793C24.058 36.8077 24.1952 36.8874 24.2885 36.8565C24.381 36.8263 24.3933 36.6964 24.3163 36.5672C24.2392 36.438 24.102 36.3583 24.0095 36.3892C23.917 36.4202 23.9039 36.5501 23.981 36.6793ZM23.4494 37.1366C23.4085 37.0128 23.2636 36.9494 23.1264 36.995C22.9892 37.0407 22.8913 37.3099 22.9275 37.4352C22.9884 37.6448 23.2127 37.7137 23.3499 37.668C23.4871 37.6224 23.4902 37.2604 23.4494 37.1366ZM22.2339 37.2248C22.1653 37.2944 22.1931 37.4344 22.2964 37.5389C22.4004 37.6425 22.5399 37.6704 22.6085 37.6015C22.6779 37.5319 22.6502 37.3919 22.5461 37.2874C22.4428 37.1838 22.3033 37.1559 22.2339 37.2248ZM21.8089 38.17C21.9476 38.1244 22.0232 37.9735 21.9769 37.835C21.9307 37.6958 21.7811 37.6208 21.6424 37.6672C21.5029 37.7136 21.4273 37.8637 21.4736 38.0029C21.5198 38.1414 21.6694 38.2164 21.8089 38.17ZM22.3109 36.6918C22.435 36.6508 22.4273 36.2926 22.3865 36.1688C22.3448 36.045 22.2115 35.9777 22.0881 36.0187C21.9648 36.0597 21.8831 36.3235 21.9201 36.4488C21.9818 36.6585 22.1876 36.7328 22.3109 36.6918ZM27.0944 39.9454C27.1715 39.9191 27.2131 39.8356 27.1877 39.7582C27.1615 39.6808 27.0782 39.6391 27.0011 39.6646C26.924 39.6901 26.8824 39.7737 26.9079 39.8518C26.9333 39.9292 27.0165 39.9709 27.0944 39.9454ZM28.098 41.177C28.0001 41.177 27.9207 41.2954 27.9199 41.4423C27.9199 41.5893 27.9985 41.7092 28.0957 41.7092C28.1936 41.71 28.273 41.5909 28.2737 41.4439C28.2745 41.2969 28.1951 41.1778 28.098 41.177ZM23.305 41.8415C23.3358 41.9343 23.4353 41.9846 23.5278 41.9544C23.6203 41.9235 23.6696 41.8229 23.6388 41.7301C23.6079 41.6373 23.5085 41.587 23.416 41.6172C23.3243 41.6481 23.2742 41.7487 23.305 41.8415ZM20.307 42.7164C20.3379 42.8092 20.4373 42.8595 20.529 42.8293C20.6215 42.7984 20.6716 42.6978 20.6408 42.605C20.61 42.5121 20.5098 42.4619 20.418 42.492C20.3255 42.523 20.2762 42.6235 20.307 42.7164ZM20.2133 42.2492C20.3058 42.2183 20.3552 42.1177 20.3243 42.0249C20.2935 41.932 20.194 41.8817 20.1015 41.9127C20.0098 41.9429 19.9597 42.0434 19.9905 42.1363C20.0214 42.2291 20.1208 42.2801 20.2133 42.2492ZM21.1813 42.1757C21.2429 42.1548 21.2769 42.0875 21.256 42.0256C21.2352 41.9637 21.1689 41.9305 21.1073 41.9506C21.0456 41.9715 21.0117 42.0388 21.0325 42.1006C21.0533 42.1625 21.1196 42.1958 21.1813 42.1757ZM22.9486 36.5571C22.9795 36.6499 23.0789 36.7002 23.1714 36.6693C23.2631 36.6391 23.3132 36.5386 23.2824 36.4457C23.2516 36.3529 23.1514 36.3018 23.0596 36.3328C22.9671 36.3637 22.9178 36.4643 22.9486 36.5571ZM22.8549 36.0899C22.9474 36.059 22.9967 35.9584 22.9659 35.8656C22.9351 35.7728 22.8356 35.7225 22.7439 35.7526C22.6514 35.7836 22.6013 35.8842 22.6321 35.977C22.663 36.0698 22.7632 36.1201 22.8549 36.0899ZM23.8229 36.0157C23.8853 35.9955 23.9185 35.9282 23.8976 35.8664C23.8776 35.8045 23.8105 35.7704 23.7489 35.7913C23.6872 35.8122 23.6533 35.8787 23.6741 35.9406C23.6949 36.0033 23.7612 36.0365 23.8229 36.0157ZM21.4154 36.7838C21.3075 36.8194 21.2489 36.937 21.2851 37.0453C21.3206 37.1536 21.4378 37.2124 21.5457 37.1768C21.6536 37.1405 21.7122 37.0236 21.6767 36.9146C21.6405 36.8063 21.5241 36.7475 21.4154 36.7838ZM24.4691 35.7735C24.5924 35.7317 24.6595 35.5979 24.6186 35.4741C24.5778 35.3503 24.4444 35.283 24.3203 35.324C24.197 35.365 24.1299 35.4996 24.1715 35.6234C24.2124 35.7472 24.3457 35.8145 24.4691 35.7735ZM25.0717 36.4961C25.2267 36.4442 25.3099 36.2771 25.2591 36.1232C25.2082 35.9685 25.0409 35.8849 24.8867 35.9368C24.7326 35.9878 24.6486 36.1549 24.6994 36.3096C24.7511 36.4636 24.9176 36.5471 25.0717 36.4961Z" fill="#634E81"/>
</g>
<mask id="mask5" mask-type="alpha" maskUnits="userSpaceOnUse" x="1" y="25" width="25" height="15">
<path fill-rule="evenodd" clip-rule="evenodd" d="M1.89551 25.7678C2.77441 33.2481 9.11422 39.0504 16.8034 39.0504C19.9364 39.0504 22.8451 38.0873 25.2518 36.44V25.7678H1.89551L1.89551 25.7678Z" fill="white"/>
</mask>
<g mask="url(#mask5)">
<path fill-rule="evenodd" clip-rule="evenodd" d="M-9.25 34.3121C-3.62831 34.7878 -4.28352 37.9595 -2.21075 39.6483C-0.464042 41.0709 1.63802 39.3179 5.0559 44.2727C6.56442 41.9814 10.1789 38.8553 13.6229 37.0513C13.6229 37.0513 12.6239 31.5774 12.0828 29.0378C15.8237 27.8565 21.2619 28.62 23.5266 30.7544C24.3098 28.4297 25.2517 28.316 25.2517 28.316L25.2355 25.7678C23.9822 26.587 23.4888 28.1373 23.337 29.1538C22.7141 28.3539 21.7182 27.6917 20.8873 27.325C18.6611 26.3418 16.048 26.0571 13.7278 26.7905C11.4083 27.5246 9.45967 29.4532 7.37996 30.7188C5.39583 31.9271 3.41171 33.1347 1.42758 34.343C1.27958 34.4327 1.12619 34.5248 0.955063 34.5496C0.766979 34.5766 0.578896 34.5194 0.396979 34.466C-2.51523 33.6127 -5.64558 33.5222 -8.60173 34.2045" fill="#268C88"/>
</g>
<mask id="mask6" mask-type="alpha" maskUnits="userSpaceOnUse" x="1" y="25" width="23" height="14">
<path fill-rule="evenodd" clip-rule="evenodd" d="M1.88965 25.72C2.63462 32.2386 7.52547 37.4921 13.849 38.7586H19.7575C21.0142 38.5069 22.2143 38.0978 23.3365 37.5525V25.72H1.88965L1.88965 25.72Z" fill="white"/>
</mask>
<g mask="url(#mask6)">
<path fill-rule="evenodd" clip-rule="evenodd" d="M23.336 29.1537C23.1595 28.9325 23.0254 28.6687 22.8319 28.4722C14.3535 19.8266 -9.25098 34.312 -9.25098 34.312C-2.79371 32.7362 1.23159 38.7586 1.23159 38.7586C15.3348 19.0151 23.336 29.1537 23.336 29.1537Z" fill="#2EBCB4"/>
</g>
<mask id="mask7" mask-type="alpha" maskUnits="userSpaceOnUse" x="31" y="5" width="6" height="6">
<path fill-rule="evenodd" clip-rule="evenodd" d="M31.5703 8.60784C31.5729 8.11703 31.6711 7.62148 31.8445 7.20032C32.2199 6.28594 33.1202 5.73901 34.0853 5.73901C34.4152 5.73901 34.7536 5.80322 35.0804 5.9386C36.0573 6.34253 36.6564 7.26545 36.6642 8.22466V8.26257C36.6619 8.5512 36.6058 8.84253 36.4903 9.12345C35.9854 10.3519 34.0383 11.3514 32.7556 10.8207C31.9239 10.4768 31.5751 9.57407 31.5703 8.64692L31.5703 8.60784H31.5703Z" fill="white"/>
</mask>
<g mask="url(#mask7)">
<path fill-rule="evenodd" clip-rule="evenodd" d="M36.4902 9.12365C36.9951 7.89597 36.3638 6.46948 35.0804 5.9388C33.7977 5.40734 32.3485 5.97284 31.8436 7.20051C31.3395 8.42897 31.4721 10.2894 32.7555 10.8209C34.0382 11.3516 35.9853 10.3513 36.4902 9.12365Z" fill="#6E568D"/>
</g>
<path fill-rule="evenodd" clip-rule="evenodd" d="M32.7033 8.87674C32.6655 8.87674 32.6277 8.86282 32.5985 8.8342C32.5376 8.77618 32.5352 8.67948 32.5938 8.61914C33.2151 7.96778 33.8426 7.59878 34.1517 7.4402C33.878 7.15088 33.0502 6.5235 31.934 6.9482C31.8554 6.97837 31.7683 6.93891 31.7382 6.86001C31.7089 6.7811 31.7482 6.69291 31.8268 6.66352C33.2251 6.13052 34.3552 7.06423 34.5232 7.43323C34.5402 7.47037 34.5417 7.51291 34.5271 7.55159C34.5124 7.5895 34.4831 7.62044 34.4461 7.63669C34.3043 7.69857 33.5581 8.04978 32.8127 8.82956C32.7835 8.86127 32.7434 8.87674 32.7033 8.87674Z" fill="#533A74"/>
<mask id="mask8" mask-type="alpha" maskUnits="userSpaceOnUse" x="34" y="5" width="3" height="4">
<path fill-rule="evenodd" clip-rule="evenodd" d="M36.6371 8.59725C36.8048 7.51264 36.1834 6.39478 35.0803 5.93867C34.9157 5.87046 34.7481 5.82032 34.5801 5.78735L34.5801 8.59725H36.6371Z" fill="white"/>
</mask>
<g mask="url(#mask8)">
<path fill-rule="evenodd" clip-rule="evenodd" d="M36.7346 8.59728C36.3753 8.59728 35.4342 8.38223 35.0672 8.15402C35.0295 8.13081 35.004 8.09291 34.9971 8.04959C34.9902 8.00627 35.0017 7.96217 35.0295 7.92813C35.2484 7.6597 35.4951 7.44928 35.7502 7.26517C35.4241 7.26827 35.0264 7.22262 34.6649 7.04393C34.6132 7.0184 34.5801 6.96579 34.5801 6.90777C34.5801 6.56044 34.9208 5.97406 35.1998 5.73734C35.2638 5.68319 35.3602 5.6917 35.4141 5.75591C35.4681 5.82011 35.4604 5.91604 35.3964 5.97019C35.1898 6.14579 34.9501 6.56044 34.8953 6.81417C35.3501 6.99983 35.9175 6.98359 36.3137 6.90004C36.3854 6.88534 36.4578 6.92402 36.4856 6.9921C36.5133 7.06017 36.4887 7.1383 36.427 7.17776C36.0693 7.40828 35.7009 7.64577 35.3902 7.97764C35.7787 8.14396 36.4671 8.29249 36.7346 8.29249C36.8186 8.29249 36.8864 8.36057 36.8864 8.44489C36.8864 8.52921 36.8186 8.59728 36.7346 8.59728Z" fill="#533A74"/>
</g>
<mask id="mask9" mask-type="alpha" maskUnits="userSpaceOnUse" x="6" y="28" width="10" height="10">
<path fill-rule="evenodd" clip-rule="evenodd" d="M12.1761 28.9915C11.5055 29.294 10.8164 29.7612 10.0494 30.3538C8.12229 31.8414 7.1865 33.6191 6.76562 35.1871C8.07758 36.3723 9.59921 37.3284 11.2673 37.9929C10.952 37.3423 10.3238 36.8596 9.5676 36.7204C9.85821 35.9963 10.5404 34.9659 12.5692 34.7578C12.7774 34.7369 12.9785 34.733 13.1697 34.7137C17.1541 34.3083 16.0203 28.7532 13.2113 28.7524C12.886 28.7524 12.5399 28.8267 12.1761 28.9915Z" fill="white"/>
</mask>
<g mask="url(#mask9)">
<path fill-rule="evenodd" clip-rule="evenodd" d="M12.1757 28.9909C11.5058 29.2942 10.816 29.7614 10.0497 30.3532C7.26935 32.4999 6.5517 35.25 6.46845 37.102C6.42683 38.0442 6.24414 38.9648 6.24414 38.9648C6.24414 40.3417 7.80508 41.2151 9.11549 41.2151C10.4251 41.2151 11.4873 40.1994 11.4873 38.947C11.4873 37.8415 10.661 36.9217 9.5672 36.7198C9.85781 35.9965 10.5408 34.9661 12.5696 34.758C12.7777 34.7371 12.9789 34.7325 13.1701 34.7131C17.6147 34.2614 15.6907 27.4004 12.1757 28.9909Z" fill="#6E568D"/>
</g>
<mask id="mask10" mask-type="alpha" maskUnits="userSpaceOnUse" x="9" y="37" width="3" height="1">
<path fill-rule="evenodd" clip-rule="evenodd" d="M9.29688 37.0344C9.91206 37.3916 10.5548 37.7063 11.2211 37.9743V37.9022C11.0287 37.5477 10.7414 37.2483 10.3913 37.0344L9.29688 37.0344L9.29688 37.0344Z" fill="white"/>
</mask>
<g mask="url(#mask10)">
<path fill-rule="evenodd" clip-rule="evenodd" d="M8.56774 40.2478C8.50531 40.2478 8.44749 40.2092 8.42514 40.1473C8.22935 39.6019 8.22704 39.0511 8.26018 38.686C8.26404 38.6458 8.28331 38.6086 8.31414 38.5823C8.34574 38.5568 8.38583 38.5444 8.42591 38.5483C8.95008 38.5978 9.37866 38.6806 9.76947 38.8972C9.70087 38.5591 9.70087 38.3007 9.70087 37.8923C9.70087 37.8474 9.72014 37.8049 9.75406 37.7762C9.78797 37.7468 9.83268 37.7345 9.87662 37.7414C10.2659 37.8025 10.5866 37.9279 10.8772 38.1375C10.8718 38.0834 10.8671 38.03 10.8625 37.9774C10.8348 37.6749 10.8116 37.4134 10.7531 37.234C10.7268 37.1543 10.77 37.0684 10.8494 37.0421C10.9296 37.0158 11.0151 37.0591 11.0413 37.1396C11.1107 37.3515 11.1362 37.6285 11.1647 37.9495C11.1801 38.1213 11.1963 38.2992 11.2202 38.4825C11.2287 38.5467 11.1955 38.6102 11.1377 38.6388C11.0791 38.6682 11.009 38.6566 10.9627 38.6109C10.6783 38.3278 10.3846 38.1623 10.0053 38.0756C10.0069 38.5057 10.0231 38.7401 10.1618 39.2066C10.1803 39.2708 10.1557 39.3397 10.1002 39.3768C10.0447 39.4139 9.97143 39.4101 9.91979 39.3675C9.53052 39.0472 9.10116 38.9304 8.55233 38.8678C8.53691 39.1927 8.55927 39.6212 8.71035 40.0436C8.73887 40.1225 8.69802 40.2099 8.61939 40.2386C8.60243 40.2448 8.5847 40.2478 8.56774 40.2478Z" fill="#533A74"/>
</g>
<mask id="mask11" mask-type="alpha" maskUnits="userSpaceOnUse" x="8" y="36" width="3" height="2">
<path fill-rule="evenodd" clip-rule="evenodd" d="M8.44238 36.4993C9.06251 36.9174 9.71544 37.2903 10.3964 37.6133V37.0378C10.148 36.8851 9.86787 36.7756 9.56752 36.7203C9.59605 36.6492 9.62835 36.5752 9.66533 36.4993L8.44238 36.4993L8.44238 36.4993Z" fill="white"/>
</mask>
<g mask="url(#mask11)">
<path fill-rule="evenodd" clip-rule="evenodd" d="M7.60517 38.1513C7.58667 38.1513 7.56817 38.1482 7.54967 38.1404C7.47182 38.1103 7.43327 38.0221 7.46334 37.9432C7.69073 37.3591 8.15632 36.9058 8.77452 36.6668C9.32259 36.4548 9.92615 36.4432 10.3123 36.6366C10.3871 36.6745 10.4172 36.7658 10.3802 36.8416C10.3424 36.9166 10.2514 36.9468 10.1759 36.9097C9.86757 36.755 9.3488 36.7712 8.88398 36.9514C8.34594 37.1588 7.94202 37.551 7.747 38.0538C7.72311 38.1141 7.66607 38.1513 7.60517 38.1513Z" fill="#533A74"/>
</g>
<path fill-rule="evenodd" clip-rule="evenodd" d="M11.5082 30.0822C11.6963 30.2276 11.7317 30.4992 11.5868 30.6887C11.4419 30.8782 11.1721 30.913 10.9833 30.7676C10.7952 30.6222 10.7597 30.3506 10.9046 30.1611C11.0496 29.9724 11.3201 29.9368 11.5082 30.0822Z" fill="#634E81"/>
<path fill-rule="evenodd" clip-rule="evenodd" d="M14.0088 29.311C14.2138 29.4309 14.2639 29.7295 14.1205 29.9771C13.9772 30.2246 13.6943 30.3283 13.4885 30.2076C13.2834 30.0877 13.2333 29.7891 13.3767 29.5416C13.5208 29.294 13.8037 29.1911 14.0088 29.311Z" fill="#634E81"/>
<path fill-rule="evenodd" clip-rule="evenodd" d="M12.5152 29.2428C12.6655 29.3596 12.694 29.5762 12.5784 29.7278C12.462 29.8795 12.2461 29.9081 12.0951 29.7913C11.9448 29.6745 11.9162 29.4578 12.0326 29.3062C12.1483 29.1546 12.3649 29.126 12.5152 29.2428Z" fill="#634E81"/>
<path fill-rule="evenodd" clip-rule="evenodd" d="M13.1031 30.4608C13.1786 30.5188 13.1925 30.6279 13.1347 30.7037C13.0769 30.7788 12.9682 30.7935 12.8934 30.7347C12.8179 30.6767 12.804 30.5684 12.8618 30.4925C12.9196 30.4167 13.0276 30.4028 13.1031 30.4608Z" fill="#634E81"/>
<path fill-rule="evenodd" clip-rule="evenodd" d="M14.5092 30.8929C14.6225 30.9803 14.6433 31.1435 14.5562 31.2564C14.4699 31.3702 14.3073 31.3918 14.1947 31.3044C14.0814 31.217 14.0606 31.0538 14.1469 30.94C14.234 30.8271 14.3959 30.8054 14.5092 30.8929Z" fill="#634E81"/>
<path fill-rule="evenodd" clip-rule="evenodd" d="M14.2787 32.8968C14.3921 32.9842 14.4129 33.1474 14.3258 33.2603C14.2394 33.3741 14.0768 33.3957 13.9642 33.3083C13.8509 33.2209 13.8301 33.0577 13.9165 32.944C14.0036 32.831 14.1654 32.8093 14.2787 32.8968Z" fill="#634E81"/>
<path fill-rule="evenodd" clip-rule="evenodd" d="M13.7963 31.5415C13.9096 31.629 13.9304 31.7922 13.8433 31.9051C13.7562 32.0188 13.5944 32.0405 13.4818 31.9531C13.3685 31.8657 13.3477 31.7024 13.434 31.5887C13.5211 31.4758 13.683 31.4541 13.7963 31.5415Z" fill="#634E81"/>
<path fill-rule="evenodd" clip-rule="evenodd" d="M15.2036 32.0298C15.3732 32.1605 15.4048 32.405 15.2745 32.5751C15.1443 32.7461 14.9007 32.7778 14.7311 32.6471C14.5615 32.5156 14.5299 32.2711 14.661 32.1009C14.7912 31.9307 15.034 31.899 15.2036 32.0298Z" fill="#634E81"/>
<path fill-rule="evenodd" clip-rule="evenodd" d="M13.3858 32.4247C13.5531 32.5539 13.56 32.9732 13.4498 33.1287C13.2655 33.3894 12.9233 33.377 12.756 33.247C12.5888 33.1178 12.7568 32.6158 12.8724 32.4649C12.9888 32.3133 13.2185 32.2955 13.3858 32.4247Z" fill="#634E81"/>
<path fill-rule="evenodd" clip-rule="evenodd" d="M12.4581 31.1621C12.5714 31.2496 12.5267 31.4344 12.3587 31.576C12.1906 31.7176 11.9625 31.7609 11.8492 31.6735C11.7366 31.5861 11.7813 31.4012 11.9494 31.2596C12.1174 31.1188 12.3448 31.0747 12.4581 31.1621Z" fill="#634E81"/>
<path fill-rule="evenodd" clip-rule="evenodd" d="M11.8911 32.4698C12.0415 32.5867 12.07 32.8033 11.9544 32.9549C11.838 33.1065 11.6221 33.1351 11.471 33.0183C11.3207 32.9015 11.2922 32.6849 11.4086 32.5333C11.5242 32.3817 11.7408 32.353 11.8911 32.4698Z" fill="#634E81"/>
<path fill-rule="evenodd" clip-rule="evenodd" d="M10.854 31.4535C10.9704 31.6043 10.8995 31.9578 10.7785 32.06C10.5758 32.2325 10.2913 32.135 10.1742 31.9841C10.0578 31.8333 10.2913 31.455 10.4162 31.3568C10.5419 31.2593 10.7376 31.3026 10.854 31.4535Z" fill="#634E81"/>
<path fill-rule="evenodd" clip-rule="evenodd" d="M10.3732 34.5697C10.5605 34.7151 10.596 34.9858 10.4511 35.1754C10.3062 35.3641 10.0364 35.4005 9.84828 35.255C9.66097 35.1104 9.62628 34.8389 9.77119 34.6501C9.91611 34.4606 10.1859 34.4242 10.3732 34.5697Z" fill="#634E81"/>
<path fill-rule="evenodd" clip-rule="evenodd" d="M8.83249 35.4519C8.9828 35.5679 9.01055 35.7845 8.89415 35.9362C8.77853 36.0878 8.56269 36.1164 8.41238 36.0004C8.26284 35.8843 8.23509 35.6677 8.35072 35.5161C8.46634 35.3645 8.68217 35.3359 8.83249 35.4519Z" fill="#634E81"/>
<mask id="mask12" mask-type="alpha" maskUnits="userSpaceOnUse" x="7" y="35" width="1" height="1">
<path fill-rule="evenodd" clip-rule="evenodd" d="M7.04395 35.4322C7.25322 35.612 7.46748 35.7862 7.6865 35.9545H7.81478V35.1809H7.04395V35.4322H7.04395Z" fill="white"/>
</mask>
<g mask="url(#mask12)">
<path fill-rule="evenodd" clip-rule="evenodd" d="M7.528 35.2433C7.65904 35.3446 7.68371 35.5349 7.58196 35.6672C7.48098 35.7995 7.29213 35.825 7.16109 35.7229C7.02927 35.6215 7.00538 35.432 7.10636 35.299C7.20811 35.1667 7.39696 35.1419 7.528 35.2433Z" fill="#634E81"/>
</g>
<path fill-rule="evenodd" clip-rule="evenodd" d="M8.10587 34.7753C8.18064 34.8333 8.19452 34.9416 8.13671 35.0174C8.07889 35.0932 7.97098 35.1079 7.89621 35.0491C7.82066 34.9911 7.80679 34.8828 7.86537 34.807C7.92319 34.732 8.0311 34.7173 8.10587 34.7753Z" fill="#634E81"/>
<path fill-rule="evenodd" clip-rule="evenodd" d="M7.7129 34.1097C7.56259 33.9937 7.57723 33.5907 7.68823 33.4359C7.87323 33.176 8.19236 33.1706 8.34267 33.2874C8.49298 33.4035 8.3103 33.8939 8.19467 34.0455C8.07905 34.1971 7.86321 34.2258 7.7129 34.1097Z" fill="#634E81"/>
<path fill-rule="evenodd" clip-rule="evenodd" d="M8.97222 33.618C8.85967 33.5306 8.90438 33.3457 9.07242 33.2042C9.24047 33.0634 9.46786 33.0193 9.5804 33.1059C9.69295 33.1933 9.64824 33.3782 9.4802 33.5198C9.31215 33.6613 9.08476 33.7054 8.97222 33.618Z" fill="#634E81"/>
<path fill-rule="evenodd" clip-rule="evenodd" d="M9.65768 31.8823C9.80799 31.9983 9.83574 32.2149 9.71935 32.3666C9.60372 32.5182 9.38789 32.5468 9.23758 32.4308C9.08804 32.3147 9.06029 32.0981 9.17591 31.9465C9.29154 31.7949 9.50737 31.7663 9.65768 31.8823Z" fill="#634E81"/>
<path fill-rule="evenodd" clip-rule="evenodd" d="M11.8391 33.8942C11.9208 34.0659 11.7266 34.4194 11.5578 34.5076C11.2757 34.6554 10.9897 34.5138 10.9087 34.3421C10.827 34.1703 11.2101 33.8145 11.3813 33.7317C11.5532 33.6497 11.7574 33.7224 11.8391 33.8942Z" fill="#634E81"/>
<path fill-rule="evenodd" clip-rule="evenodd" d="M10.0745 33.7895C9.95807 33.6387 10.0305 33.2859 10.1515 33.1831C10.3535 33.0113 10.6372 33.108 10.7536 33.2589C10.87 33.4089 10.6364 33.7872 10.5108 33.8847C10.3859 33.9829 10.1909 33.9404 10.0745 33.7895Z" fill="#634E81"/>
<path fill-rule="evenodd" clip-rule="evenodd" d="M9.3807 34.4576C9.45547 34.5156 9.46935 34.6239 9.41076 34.699C9.35295 34.7748 9.24581 34.7895 9.17103 34.7315C9.09626 34.6742 9.08239 34.5659 9.1402 34.4901C9.19801 34.4143 9.30593 34.3996 9.3807 34.4576Z" fill="#634E81"/>
<path fill-rule="evenodd" clip-rule="evenodd" d="M26.1199 24.7999C25.8917 24.7334 25.7599 24.4944 25.8254 24.2646C25.8909 24.0349 26.1291 23.9026 26.3581 23.9691C26.5862 24.0356 26.718 24.2747 26.6525 24.5044C26.587 24.7342 26.348 24.8665 26.1199 24.7999Z" fill="#634E81"/>
<path fill-rule="evenodd" clip-rule="evenodd" d="M26.5904 23.2202C26.3553 23.1839 26.2004 22.9247 26.2435 22.6416C26.2867 22.3584 26.5118 22.1581 26.7469 22.1944C26.982 22.2308 27.1369 22.49 27.0938 22.7731C27.0506 23.0562 26.8255 23.2566 26.5904 23.2202Z" fill="#634E81"/>
<path fill-rule="evenodd" clip-rule="evenodd" d="M27.5462 22.482C27.3635 22.4294 27.2579 22.2376 27.3103 22.0535C27.3627 21.8701 27.5539 21.7642 27.7366 21.8175C27.9193 21.8701 28.0249 22.062 27.9725 22.2453C27.92 22.4294 27.7289 22.5346 27.5462 22.482Z" fill="#634E81"/>
<path fill-rule="evenodd" clip-rule="evenodd" d="M26.6218 21.3752C26.53 21.3489 26.4776 21.253 26.5038 21.161C26.53 21.0697 26.6256 21.0163 26.7166 21.0426C26.8083 21.0697 26.8607 21.1656 26.8345 21.2569C26.8083 21.3489 26.7135 21.4015 26.6218 21.3752Z" fill="#634E81"/>
<path fill-rule="evenodd" clip-rule="evenodd" d="M25.5489 21.8917C25.4117 21.8522 25.3331 21.7083 25.3724 21.5706C25.4117 21.4329 25.5543 21.3533 25.6916 21.3935C25.8288 21.4329 25.9082 21.5768 25.8688 21.7145C25.8288 21.8522 25.6862 21.9311 25.5489 21.8917Z" fill="#634E81"/>
<path fill-rule="evenodd" clip-rule="evenodd" d="M25.7179 23.2164C25.5807 23.1769 25.5021 23.033 25.5414 22.8953C25.5807 22.7577 25.7233 22.678 25.8605 22.7182C25.9977 22.7577 26.0771 22.9015 26.037 23.0392C25.9977 23.1769 25.8551 23.2558 25.7179 23.2164Z" fill="#634E81"/>
<path fill-rule="evenodd" clip-rule="evenodd" d="M25.9767 21.0257C25.8395 20.9863 25.7608 20.8424 25.8002 20.7047C25.8395 20.567 25.9821 20.4873 26.1193 20.5275C26.2565 20.567 26.3359 20.7109 26.2966 20.8486C26.2565 20.9863 26.1139 21.0652 25.9767 21.0257Z" fill="#634E81"/>
<path fill-rule="evenodd" clip-rule="evenodd" d="M31.8517 11.3403C31.6459 11.2807 31.5272 11.0649 31.5866 10.8584C31.6459 10.6518 31.8602 10.5327 32.066 10.5922C32.2711 10.6518 32.3898 10.8676 32.3312 11.0742C32.2718 11.2807 32.0576 11.3999 31.8517 11.3403Z" fill="#634E81"/>
<path fill-rule="evenodd" clip-rule="evenodd" d="M31.31 14.474C31.1072 14.4152 30.9477 14.0276 30.9932 13.842C31.0695 13.5317 31.3924 13.418 31.5952 13.4768C31.7987 13.5356 31.8257 14.0647 31.7725 14.2481C31.72 14.4314 31.5127 14.5328 31.31 14.474Z" fill="#634E81"/>
<path fill-rule="evenodd" clip-rule="evenodd" d="M27.7644 21.3329C27.6272 21.2934 27.601 21.1047 27.7058 20.9113C27.8107 20.7179 28.0072 20.5933 28.1437 20.6328C28.2809 20.673 28.3071 20.8618 28.2023 21.0552C28.0974 21.2478 27.9016 21.3723 27.7644 21.3329Z" fill="#634E81"/>
<path fill-rule="evenodd" clip-rule="evenodd" d="M26.7952 20.285C26.6125 20.2324 26.5069 20.0406 26.5593 19.8565C26.6118 19.6731 26.8029 19.5671 26.9856 19.6205C27.1683 19.6731 27.2739 19.865 27.2215 20.0483C27.1683 20.2324 26.9779 20.3376 26.7952 20.285Z" fill="#634E81"/>
<path fill-rule="evenodd" clip-rule="evenodd" d="M28.657 20.4541C28.4936 20.3567 28.4312 20.0016 28.5059 19.8616C28.6316 19.6272 28.9322 19.6133 29.0956 19.7107C29.259 19.8082 29.1804 20.246 29.0995 20.383C29.0185 20.5199 28.8204 20.5516 28.657 20.4541Z" fill="#634E81"/>
<path fill-rule="evenodd" clip-rule="evenodd" d="M29.1431 13.2693C28.9157 13.2036 28.7839 12.9638 28.8502 12.7348C28.9157 12.505 29.1531 12.3727 29.3813 12.4385C29.6087 12.5043 29.7397 12.7441 29.6742 12.973C29.6087 13.2028 29.3705 13.3351 29.1431 13.2693Z" fill="#634E81"/>
<path fill-rule="evenodd" clip-rule="evenodd" d="M30.4441 12.0044C30.2622 11.9518 30.1574 11.76 30.2098 11.5766C30.2622 11.3933 30.4526 11.2873 30.6345 11.3399C30.8164 11.3925 30.9213 11.5844 30.8689 11.7677C30.8164 11.951 30.626 12.057 30.4441 12.0044Z" fill="#634E81"/>
<path fill-rule="evenodd" clip-rule="evenodd" d="M30.4563 15.2765C30.2967 15.2301 30.205 15.063 30.2512 14.9021C30.2967 14.7412 30.4632 14.6491 30.6228 14.6948C30.7823 14.7412 30.8741 14.9091 30.8278 15.0692C30.7823 15.2301 30.6158 15.3229 30.4563 15.2765Z" fill="#634E81"/>
<path fill-rule="evenodd" clip-rule="evenodd" d="M32.3117 13.6122C32.1522 13.5658 32.0605 13.3987 32.1067 13.2378C32.1522 13.0769 32.3187 12.9848 32.4782 13.0305C32.6378 13.0769 32.7295 13.2448 32.6833 13.4049C32.6378 13.5658 32.4713 13.6586 32.3117 13.6122Z" fill="#634E81"/>
<path fill-rule="evenodd" clip-rule="evenodd" d="M30.0897 15.9246C29.9988 15.8983 29.9464 15.8023 29.9726 15.7103C29.9988 15.619 30.0936 15.5656 30.1846 15.5919C30.2763 15.619 30.3287 15.7141 30.3025 15.8062C30.2763 15.8983 30.1807 15.9509 30.0897 15.9246Z" fill="#634E81"/>
<path fill-rule="evenodd" clip-rule="evenodd" d="M30.077 13.4623C30.2188 13.4561 30.3414 13.6248 30.3514 13.8391C30.3607 14.0541 30.2527 14.2328 30.1109 14.2398C29.9691 14.246 29.8465 14.0773 29.8365 13.8623C29.8272 13.648 29.9352 13.4685 30.077 13.4623Z" fill="#634E81"/>
<path fill-rule="evenodd" clip-rule="evenodd" d="M30.9271 15.8521C31.109 15.9047 31.2431 16.2845 31.1969 16.4702C31.119 16.7804 30.8238 16.9019 30.6419 16.8493C30.4592 16.7967 30.4499 16.2722 30.5023 16.0888C30.5548 15.9055 30.7452 15.7995 30.9271 15.8521Z" fill="#634E81"/>
<path fill-rule="evenodd" clip-rule="evenodd" d="M26.2374 25.3703C26.3738 25.4098 26.4 25.5985 26.2952 25.7919C26.1903 25.9853 25.9953 26.1099 25.8581 26.0704C25.7217 26.031 25.6962 25.8422 25.8003 25.6488C25.9051 25.4554 26.1009 25.3309 26.2374 25.3703Z" fill="#634E81"/>
<path fill-rule="evenodd" clip-rule="evenodd" d="M29.3592 19.3496C29.1772 19.297 29.0724 19.1052 29.1248 18.9218C29.1772 18.7385 29.3676 18.6325 29.5496 18.6851C29.7315 18.7377 29.8363 18.9296 29.7839 19.1129C29.7315 19.2962 29.5411 19.4022 29.3592 19.3496Z" fill="#634E81"/>
<path fill-rule="evenodd" clip-rule="evenodd" d="M31.0593 12.8748C30.9206 12.7448 30.9722 12.3449 31.0971 12.201C31.3052 11.9596 31.6236 11.9859 31.7615 12.1159C31.9003 12.2459 31.6737 12.7177 31.5442 12.8578C31.4147 12.997 31.1981 13.0047 31.0593 12.8748Z" fill="#634E81"/>
<path fill-rule="evenodd" clip-rule="evenodd" d="M28.038 19.3211C28.2007 19.4186 28.2631 19.7729 28.1876 19.9137C28.0619 20.1481 27.7628 20.162 27.6002 20.0646C27.4368 19.9679 27.5162 19.53 27.5971 19.3931C27.6773 19.2562 27.8754 19.2237 28.038 19.3211Z" fill="#634E81"/>
<path fill-rule="evenodd" clip-rule="evenodd" d="M32.4689 12.3572C32.378 12.3309 32.3263 12.2349 32.3525 12.1437C32.3787 12.0516 32.4735 11.9982 32.5637 12.0245C32.6547 12.0508 32.7071 12.1468 32.6809 12.2388C32.6547 12.3301 32.5599 12.3835 32.4689 12.3572Z" fill="#634E81"/>
<path fill-rule="evenodd" clip-rule="evenodd" d="M14.3174 19.7668L15.0952 22.1441L17.3637 20.9907L18.8337 22.7699L20.9072 21.1485L22.8235 22.486L24.2742 20.6348L24.3228 20.4577L21.6179 20.6982L19.3925 20.7764L16.9891 20.6828L14.3174 19.7668Z" fill="white"/>
</svg>
