<svg width="116" height="18" viewBox="0 0 116 18" fill="none" xmlns="http://www.w3.org/2000/svg">
<path fill-rule="evenodd" clip-rule="evenodd" d="M14.2711 2.29255C14.2711 1.66631 14.4378 1.1506 14.7707 0.744771C15.1042 0.339159 15.5925 0.136353 16.2358 0.136353C16.8794 0.136353 17.3734 0.339159 17.7181 0.744771C18.0629 1.1506 18.2352 1.66631 18.2352 2.29255V7.75198C18.2352 9.18902 18.0856 10.4875 17.787 11.6467C17.4882 12.806 17.0056 13.8665 16.3392 14.8288C15.673 15.7908 14.7307 16.5386 13.5128 17.0717C12.2948 17.6048 10.847 17.8713 9.16931 17.8713C5.92901 17.8713 3.59084 16.95 2.15417 15.1069C0.717916 13.2636 0 10.8352 0 7.82156V2.29255C0 1.66631 0.177902 1.1506 0.534126 0.744771C0.890771 0.339159 1.39041 0.136353 2.03389 0.136353C2.70028 0.136353 3.21716 0.339159 3.58495 0.744771C3.95275 1.1506 4.13654 1.66631 4.13654 2.29255V7.99552C4.13654 12.0987 5.82534 14.1503 9.20359 14.1503C12.5818 14.1503 14.2711 12.0756 14.2711 7.92572V2.29255Z" fill="#FF5D6A"/>
<path fill-rule="evenodd" clip-rule="evenodd" d="M89.7466 7.83422C90.4912 7.45555 90.8638 6.84607 90.8638 6.006C90.8638 4.51889 89.4244 3.77534 86.5462 3.77534C86.023 3.77534 83.291 3.8165 82.2844 3.89923V8.31981C82.9087 8.37476 85.5598 8.40234 86.3046 8.40234C87.8546 8.40234 89.0019 8.21289 89.7466 7.83422ZM78.3018 2.35358C78.3018 1.31748 78.9034 0.690609 80.1062 0.472529C81.3738 0.236204 84.6227 0.118042 86.5778 0.118042C92.1419 0.118042 94.924 2.00842 94.924 5.78898C94.924 7.07943 94.559 8.17004 93.8282 9.06061C93.0981 9.95117 92.0845 10.6421 90.6214 10.9917L94.1378 14.5268C94.769 15.2511 95.0409 16.4855 93.6598 17.1669C92.5278 17.7255 91.2806 17.3322 90.369 16.2445L86.202 11.5414C85.9229 11.5779 82.8015 11.5598 82.2211 11.4871V15.7267C82.2211 16.2174 82.0497 16.6173 81.7059 16.9261C81.362 17.235 80.9999 17.3897 80.3983 17.3897C79.7754 17.3897 79.1343 17.235 78.8014 16.9261C78.4683 16.6173 78.3018 16.2174 78.3018 15.7267V2.35358Z" fill="#FF5D6A"/>
<path fill-rule="evenodd" clip-rule="evenodd" d="M111.684 2.29255C111.684 1.66631 111.851 1.1506 112.184 0.744771C112.517 0.339159 113.006 0.136353 113.649 0.136353C114.293 0.136353 114.786 0.339159 115.131 0.744771C115.476 1.1506 115.648 1.66631 115.648 2.29255V7.75198C115.648 9.18902 115.499 10.4875 115.2 11.6467C114.901 12.806 114.419 13.8665 113.752 14.8288C113.086 15.7908 112.144 16.5386 110.926 17.0717C109.708 17.6048 108.26 17.8713 106.582 17.8713C103.342 17.8713 101.004 16.95 99.5673 15.1069C98.131 13.2636 97.4131 10.8352 97.4131 7.82156V2.29255C97.4131 1.66631 97.591 1.1506 97.9472 0.744771C98.3039 0.339159 98.8035 0.136353 99.447 0.136353C100.113 0.136353 100.63 0.339159 100.998 0.744771C101.366 1.1506 101.55 1.66631 101.55 2.29255V7.99552C101.55 12.0987 103.238 14.1503 106.617 14.1503C109.995 14.1503 111.684 12.0756 111.684 7.92572V2.29255Z" fill="#FF5D6A"/>
<path fill-rule="evenodd" clip-rule="evenodd" d="M30.1075 17.8713C27.0458 17.8713 24.6508 17.1063 22.9214 15.5763C21.1921 14.0464 20.3271 11.9018 20.3271 9.14316C20.3271 6.36094 21.2276 4.16444 23.0274 2.55302C24.8279 0.941605 27.287 0.136108 30.4053 0.136108C32.8152 0.136108 34.6436 0.460471 35.8908 1.10962C37.1096 1.73565 37.4642 2.51272 36.9538 3.43977C36.4721 4.27454 35.5367 4.62818 34.1476 4.28069C32.7018 3.933 31.0873 3.6483 30.1237 3.6483C28.4793 3.6483 27.1898 4.13538 26.2538 5.10889C25.3183 6.08262 24.8508 7.42716 24.8508 9.14316C24.8508 10.7658 25.3395 12.041 26.318 12.9681C27.2958 13.8955 28.5788 14.3593 30.1662 14.3593C31.3003 14.3593 33.0703 14.0347 34.6575 13.3853C36.0185 12.8522 36.9824 12.9681 37.5491 13.733C38.2015 14.6141 37.918 15.4601 36.699 16.2719C35.0545 17.3381 32.8577 17.8713 30.1075 17.8713Z" fill="#FF5D6A"/>
<path fill-rule="evenodd" clip-rule="evenodd" d="M63.6695 0.57384C64.0716 0.191563 64.6177 0 65.3068 0C65.9963 0 66.5481 0.191563 66.9617 0.57384C67.3752 0.956541 67.5821 1.47225 67.5821 2.12162C67.5821 2.79389 67.3752 3.31512 66.9617 3.68615C66.5481 4.05718 65.9963 4.24281 65.3068 4.24281C64.6177 4.24281 64.0716 4.06291 63.6695 3.70355C63.2674 3.34418 63.0664 2.8168 63.0664 2.12162C63.0664 1.47225 63.2674 0.956541 63.6695 0.57384Z" fill="#FF5D6A"/>
<path fill-rule="evenodd" clip-rule="evenodd" d="M59.468 0.71007C59.1234 0.327369 58.641 0.13623 58.0202 0.13623C57.3999 0.13623 56.923 0.327369 56.5899 0.71007C56.2566 1.09235 56.0898 1.57391 56.0898 2.15326V6.86511H44.4307V2.15326C44.4307 1.57391 44.2585 1.09235 43.9134 0.71007C43.569 0.327369 43.0863 0.13623 42.4656 0.13623C41.8452 0.13623 41.3683 0.327369 41.0352 0.71007C40.7019 1.09235 40.5352 1.57391 40.5352 2.15326V15.5066C40.5352 16.0864 40.7019 16.5676 41.0352 16.9498C41.3683 17.3325 41.8452 17.5237 42.4656 17.5237C43.0863 17.5237 43.569 17.3325 43.9134 16.9498C44.2585 16.5676 44.4307 16.0864 44.4307 15.5066V10.7948H56.0898V15.5066C56.0898 16.0864 56.2566 16.5676 56.5899 16.9498C56.923 17.3325 57.3999 17.5237 58.0202 17.5237C58.641 17.5237 59.1234 17.3325 59.468 16.9498C59.8131 16.5676 59.9853 16.0864 59.9853 15.5066V2.15326C59.9853 1.57391 59.8131 1.09235 59.468 0.71007Z" fill="#FF5D6A"/>
<path fill-rule="evenodd" clip-rule="evenodd" d="M63.376 8.27692C63.376 7.69735 63.5427 7.216 63.876 6.83373C64.2091 6.45103 64.6858 6.25989 65.3064 6.25989C65.9272 6.25989 66.4096 6.45103 66.7542 6.83373C67.0991 7.216 67.2713 7.69735 67.2713 8.27692V15.5067C67.2713 16.0864 67.0991 16.5676 66.7542 16.9499C66.4096 17.3326 65.9272 17.5237 65.3064 17.5237C64.6858 17.5237 64.2091 17.3326 63.876 16.9499C63.5427 16.5676 63.376 16.0864 63.376 15.5067V8.27692Z" fill="#FF5D6A"/>
<path fill-rule="evenodd" clip-rule="evenodd" d="M71.0106 13.4027C71.436 12.9277 72.016 12.6897 72.7516 12.6897C73.487 12.6897 74.073 12.9277 74.5096 13.4027C74.9461 13.8781 75.1646 14.4519 75.1646 15.1242C75.1646 15.8198 74.952 16.3932 74.5266 16.8453C74.1018 17.2974 73.5099 17.5235 72.7516 17.5235C71.9931 17.5235 71.4072 17.2974 70.9934 16.8453C70.5798 16.3932 70.373 15.8198 70.373 15.1242C70.373 14.4519 70.5856 13.8781 71.0106 13.4027Z" fill="#FF5D6A"/>
</svg>
