<svg width="79" height="14" viewBox="0 0 79 14" fill="none" xmlns="http://www.w3.org/2000/svg">
<path fill-rule="evenodd" clip-rule="evenodd" d="M72.7894 6.56593C72.7894 6.56593 73.6768 10.3301 72.6576 12.318C70.0658 11.4923 68.726 8.26844 68.726 8.26844C68.726 8.26844 65.6601 11.4229 64.363 11.7825C63.4385 -3.14898 74.3493 -0.803499 78.175 6.96289C75.6583 7.54526 72.7894 6.56593 72.7894 6.56593Z" fill="#8B60C6"/>
<path fill-rule="evenodd" clip-rule="evenodd" d="M9.16312 7.90089C9.16312 7.90089 9.44725 11.7588 8.09764 13.5826C5.68256 12.32 4.83017 8.95305 4.83017 8.95305C4.83017 8.95305 1.27858 11.5484 0 11.6887C1.49167 -3.25206 11.9334 0.816311 14.4195 9.16348C11.8623 9.30377 9.16312 7.90089 9.16312 7.90089Z" fill="#8B60C6"/>
</svg>
