<svg width="15" height="14" viewBox="0 0 15 14" fill="none" xmlns="http://www.w3.org/2000/svg">
<path fill-rule="evenodd" clip-rule="evenodd" d="M11.5256 6.99912L8.32643 10.1983C7.91853 10.6062 7.91853 11.268 8.32643 11.6759C8.73432 12.0838 9.39515 12.0838 9.80304 11.6759L13.713 7.76592C13.925 7.55498 14.0209 7.27605 14.0139 6.99912C14.0209 6.7222 13.925 6.44327 13.713 6.23232L9.80304 2.32235C9.39515 1.91446 8.73432 1.91446 8.32643 2.32235C7.91853 2.73025 7.91853 3.39207 8.32643 3.79996L11.5256 6.99912Z" fill="white"/>
<path fill-rule="evenodd" clip-rule="evenodd" d="M5 8C4.44772 8 4 7.55228 4 7C4 6.44772 4.44772 6 5 6H11C11.5523 6 12 6.44772 12 7C12 7.55228 11.5523 8 11 8L5 8Z" fill="white"/>
<path fill-rule="evenodd" clip-rule="evenodd" d="M5 0C5.55228 0 6 0.447715 6 1C6 1.55228 5.55228 2 5 2L1 2C0.447715 2 0 1.55228 0 1C0 0.447715 0.447715 0 1 0L5 0Z" fill="white"/>
<path fill-rule="evenodd" clip-rule="evenodd" d="M5 12C5.55228 12 6 12.4477 6 13C6 13.5523 5.55228 14 5 14H1C0.447715 14 0 13.5523 0 13C0 12.4477 0.447715 12 1 12L5 12Z" fill="white"/>
<path fill-rule="evenodd" clip-rule="evenodd" d="M1 0C1.55228 0 2 0.447715 2 1L2 13C2 13.5523 1.55228 14 1 14C0.447715 14 0 13.5523 0 13L0 1C0 0.447716 0.447715 0 1 0Z" fill="white"/>
</svg>
