<svg width="62" height="40" viewBox="0 0 62 40" fill="none" xmlns="http://www.w3.org/2000/svg">
<path fill-rule="evenodd" clip-rule="evenodd" d="M9.87389 16.6558C8.99097 17.0192 8.77006 18.3996 9.35891 19.7071C9.94777 21.0146 11.1248 21.7413 12.0077 21.378C12.8899 21.0146 13.1108 19.6342 12.5227 18.3267C11.9338 17.0192 10.7568 16.2925 9.87389 16.6558Z" fill="#0C0E10"/>
<path fill-rule="evenodd" clip-rule="evenodd" d="M2.9639 20.4358C2.30188 20.9444 2.44891 22.1067 3.405 22.9786C4.28793 23.8505 5.61268 24.1409 6.27469 23.6323C6.93671 23.1238 6.78968 21.9615 5.83288 21.0896C4.87679 20.2177 3.62591 19.9273 2.9639 20.4358Z" fill="#0C0E10"/>
<path fill-rule="evenodd" clip-rule="evenodd" d="M32.6408 6.95117C36.4851 6.95117 39.6019 10.0291 39.6019 13.8253C39.6019 17.6215 36.4851 20.6995 32.6408 20.6995C28.7966 20.6995 25.6797 17.6215 25.6797 13.8253C25.6797 10.0291 28.7966 6.95117 32.6408 6.95117Z" fill="white"/>
<path fill-rule="evenodd" clip-rule="evenodd" d="M46.2795 7.65234C50.1237 7.65234 53.2406 10.7303 53.2406 14.5265C53.2406 18.3227 50.1237 21.4006 46.2795 21.4006C42.4352 21.4006 39.3184 18.3227 39.3184 14.5265C39.3184 10.7303 42.4352 7.65234 46.2795 7.65234Z" fill="white"/>
<path fill-rule="evenodd" clip-rule="evenodd" d="M11.972 21.2617C11.1196 21.6124 9.98306 20.911 9.41481 19.6484C8.84655 18.3858 9.05965 17.0531 9.91203 16.7023C10.7644 16.3516 11.9009 17.0531 12.4692 18.3157C13.0374 19.5783 12.8243 20.911 11.972 21.2617ZM6.21854 23.5759C5.57925 24.067 4.37171 23.7864 3.44829 22.9446C2.59591 22.1029 2.38281 20.9806 3.0221 20.4896C3.66139 19.9986 4.86893 20.2792 5.79235 21.1209C6.64473 21.9626 6.85783 23.0849 6.21854 23.5759ZM52.4595 20.0678C51.7492 20.7693 50.9678 21.3304 50.0444 21.7513C50.0444 21.7513 49.9734 21.7513 49.9734 21.8214C49.6892 21.9617 49.4761 22.0319 49.192 22.1721C49.121 22.1721 49.0499 22.2423 48.9789 22.2423C48.7658 22.3124 48.5527 22.3826 48.3396 22.4527C48.2686 22.4527 48.1265 22.5229 48.0555 22.5229C47.8424 22.593 47.6293 22.593 47.3452 22.6632C47.2741 22.6632 47.1321 22.6631 47.061 22.7333C46.7059 22.7333 46.4218 22.8034 46.0666 22.8034C43.2253 22.8034 40.6682 21.5408 39.1055 19.6469C37.4717 21.12 35.2697 22.102 32.7836 22.102C32.4995 22.102 32.2154 22.102 31.9312 22.0319H31.6471C31.434 22.0319 31.292 21.9617 31.0789 21.9617C31.0078 21.9617 30.8658 21.9617 30.7947 21.8916C30.5816 21.8214 30.4396 21.8214 30.2265 21.7513C30.1554 21.7513 30.0844 21.7513 30.0134 21.6811C29.8003 21.611 29.5162 21.5408 29.3031 21.4707C29.232 21.4006 29.09 21.4006 29.0189 21.3304C28.8769 21.2603 28.7348 21.1901 28.5927 21.12C28.4507 21.0498 28.3796 20.9797 28.2376 20.9797C28.0955 20.9095 28.0245 20.8394 27.9535 20.7693C27.8114 20.6991 27.7404 20.629 27.5983 20.5588C27.5273 20.4887 27.4562 20.4887 27.3852 20.4185C27.1011 20.2081 26.888 20.0678 26.6749 19.8574C26.6038 19.7872 26.6038 19.7872 26.5328 19.7171C26.3907 19.5768 26.2487 19.5067 26.1777 19.3664C26.1066 19.2962 26.1066 19.2962 26.0356 19.2261C25.4673 18.6649 24.9701 17.9635 24.615 17.262C24.5439 17.0516 24.4019 16.9113 24.3308 16.7009C20.9213 16.6307 17.8669 16.771 15.3098 17.1919C14.1022 14.9473 11.8292 13.5444 9.76927 14.0354C7.70935 14.5264 6.5018 16.7009 6.85696 19.1559C5.08116 18.0336 3.02124 17.753 1.67163 18.5948C-0.175199 19.7171 -0.0331352 22.4527 1.88473 24.6272C2.80814 25.6794 4.01569 26.4509 5.22323 26.8017C4.79704 31.7819 4.7869 36.0539 5 39L39 39.0312C41.131 37.6985 43.0833 35.7801 43.7225 33.6057C43.7936 33.3251 44.0777 33.1147 44.3618 33.1147H44.5039C44.8591 33.1848 45.1432 33.5355 45.0011 33.9564C44.646 35.1488 44.0777 36.201 43.2964 37.1129V39H51L52.8857 19.5768C52.7436 19.7872 52.6015 19.9275 52.4595 20.0678Z" fill="#FF5F6D"/>
<path fill-rule="evenodd" clip-rule="evenodd" d="M49.4045 0.358373C47.9128 0.218084 46.8473 0.498662 46.5632 1.41054C46.2791 2.25227 47.2735 3.16415 48.1259 3.44472C48.9783 3.7253 51.0382 5.6192 51.6065 6.11021C52.1747 6.60122 53.3112 6.53107 53.8084 6.11021C54.3767 5.68934 54.3057 4.70732 53.9505 4.07602C53.2402 2.39256 51.5354 0.63895 49.4045 0.358373Z" fill="#0C0E10"/>
<path fill-rule="evenodd" clip-rule="evenodd" d="M30.6524 0.00749009C28.4504 0.0776344 26.6036 1.69095 25.6801 3.23413C25.325 3.86543 25.1119 4.7773 25.6091 5.33846C26.1063 5.82947 27.2428 5.96976 27.8111 5.54889C28.3794 5.12803 30.7234 3.44456 31.5758 3.23413C32.4992 3.0237 33.5647 2.25211 33.4226 1.34023C33.2095 0.358212 32.144 -0.0626542 30.6524 0.00749009Z" fill="#0C0E10"/>
<path fill-rule="evenodd" clip-rule="evenodd" d="M54.6652 30.9996L61.8284 25.8089L53.3045 19.4258C53.2335 19.5661 53.1625 19.6362 53.0204 19.7765L50.5 39H58L59.1291 37.5932L54.6652 30.9996Z" fill="#0C0E10"/>
<path fill-rule="evenodd" clip-rule="evenodd" d="M32.2159 8.6521C35.4287 8.6521 38.0568 11.1036 38.0568 14.0595C38.0568 17.0161 35.4287 19.4677 32.289 19.4677C32.0696 19.5392 31.7776 19.5392 31.4857 19.5392C30.6098 19.5392 29.7333 19.1794 29.1494 18.6743C27.4702 17.7372 26.3018 16.0067 26.3018 14.0595C26.3749 11.0314 29.0031 8.6521 32.2159 8.6521ZM45.9427 9.37311C49.1555 9.37311 51.7837 11.8247 51.7837 14.7805C51.7837 17.6649 49.3743 19.9719 46.3078 20.1887C45.9427 20.3325 45.5776 20.4047 45.2125 20.4047C44.2635 20.4047 43.387 19.9719 42.8031 19.3953C41.1964 18.4582 40.1011 16.7277 40.1011 14.8528C40.0286 11.8247 42.6568 9.37311 45.9427 9.37311ZM24.0379 17.5937C24.403 18.3148 24.9144 18.9636 25.4983 19.6125C25.4983 19.6847 25.5714 19.6847 25.6446 19.757C25.7902 19.9008 25.8634 19.973 26.0097 20.1175C26.0829 20.1898 26.0829 20.1898 26.1553 20.2613C26.3748 20.4781 26.6667 20.6941 26.8855 20.8386C26.9587 20.9108 27.0319 20.9108 27.105 20.9824C27.2506 21.0546 27.3238 21.1269 27.4701 21.1991C27.5426 21.2707 27.6889 21.3429 27.7621 21.4152C27.9077 21.4874 27.9808 21.5597 28.1272 21.5597C28.2728 21.6312 28.4191 21.7035 28.5647 21.7757C28.6379 21.848 28.7842 21.848 28.8574 21.9202C29.0761 21.9918 29.3681 22.064 29.5876 22.1363C29.66 22.1363 29.7332 22.2085 29.8064 22.2085C30.0251 22.2808 30.1715 22.2808 30.3902 22.3523C30.4634 22.3523 30.6097 22.3523 30.6822 22.4246C30.9017 22.4246 31.0473 22.4968 31.2668 22.4968H31.5587C31.8507 22.4968 32.1426 22.5691 32.4345 22.5691C34.9903 22.5691 37.2541 21.6312 38.9333 20.0453C40.6124 21.9918 43.1682 23.2901 46.0883 23.2901C46.4534 23.2901 46.8185 23.2901 47.1105 23.2179C47.1836 23.2179 47.3299 23.2179 47.4031 23.1456C47.6219 23.1456 47.9138 23.0734 48.1326 23.0012C48.2058 23.0012 48.3521 22.9296 48.4253 22.9296L49.0823 22.7129C49.1555 22.7129 49.2279 22.6406 49.3011 22.6406C49.593 22.5691 49.8125 22.4246 50.1044 22.2808C50.1044 22.2808 50.1776 22.2808 50.1776 22.2085C51.1266 21.7757 51.93 21.1991 52.6602 20.4781C52.8058 20.3336 52.9521 20.1898 53.0977 19.973C53.1709 19.9008 53.2441 19.757 53.3897 19.6125C54.485 18.2426 55.0696 16.5843 55.0696 14.7094C54.9964 10.1675 50.9078 6.34608 45.9427 6.34608C43.387 6.34608 41.1239 7.28321 39.444 8.86917C37.7648 6.92267 35.1366 5.625 32.2158 5.625C27.1775 5.625 23.0889 9.37421 23.0889 14.0606C23.0889 15.1422 23.3076 16.1516 23.6727 17.0894C23.8191 17.2332 23.8922 17.4499 24.0379 17.5937Z" fill="#8B60C6"/>
<path fill-rule="evenodd" clip-rule="evenodd" d="M48.4105 17.614C48.4105 16.0007 46.9898 14.668 45.214 14.668C43.4382 14.668 42.0176 16.0007 42.0176 17.614C42.0176 18.3856 42.3017 19.0169 42.7989 19.5781C43.3672 20.2094 44.2196 20.5601 45.143 20.5601C45.4981 20.5601 45.8533 20.4899 46.2085 20.3497C47.5581 19.9989 48.4105 18.9468 48.4105 17.614Z" fill="#0C0E10"/>
<path fill-rule="evenodd" clip-rule="evenodd" d="M34.7728 16.7019C34.7728 15.0886 33.3521 13.7559 31.5763 13.7559C29.8005 13.7559 28.3799 15.0886 28.3799 16.7019C28.3799 17.5437 28.735 18.2451 29.3033 18.8063C29.8716 19.3674 30.6529 19.648 31.5763 19.648C31.8604 19.648 32.0735 19.5778 32.3577 19.5778C33.7783 19.2271 34.7728 18.1048 34.7728 16.7019Z" fill="#0C0E10"/>
</svg>
